<svg width="2220" height="100" viewBox="0 0 2220 100" fill="none" xmlns="http://www.w3.org/2000/svg" xmlns:xlink="http://www.w3.org/1999/xlink">
<path d="M0,3L2220,3L2220,-1L0,-1L0,3ZM0,100C1.693,100 3.385,100 5.076,100C6.766,100 8.455,100 10.142,100C11.83,100 13.516,100 15.201,100C16.885,100 18.568,100 20.25,100C21.932,100 23.612,100 25.291,100C26.97,100 28.647,100 30.324,100C32,100 33.674,100 35.347,100C37.021,100 38.692,100 40.363,100C42.033,100 43.702,100 45.37,100C47.037,100 48.704,100 50.368,100C52.033,100 53.697,100 55.359,100C57.021,100 58.681,100 60.341,100C62,100 63.658,100 65.314,100C66.971,100 68.626,100 70.279,100C71.933,100 73.585,100 75.236,100C76.887,100 78.537,100 80.185,100C81.834,100 83.48,100 85.126,100C86.771,100 88.416,100 90.058,100C91.701,100 93.343,100 94.983,100C96.623,100 98.262,100 99.899,100C101.537,100 103.173,100 104.808,100C106.442,100 108.076,100 109.708,100C111.34,100 112.971,100 114.6,100C116.23,100 117.858,100 119.485,100C121.111,100 122.737,100 124.361,100C125.985,100 127.608,100 129.23,100C130.851,100 132.472,100 134.09,100C135.709,100 137.327,100 138.943,100C140.56,100 142.175,100 143.789,100C145.403,100 147.015,100 148.626,100C150.237,100 151.847,100 153.456,100C155.065,100 156.672,100 158.278,100C159.884,100 161.489,100 163.093,100C164.696,100 166.299,100 167.9,100C169.501,100 171.1,100 172.699,100C174.298,100 175.895,100 177.491,100C179.087,100 180.682,100 182.275,100C183.869,100 185.461,100 187.052,100C188.643,100 190.233,100 191.822,100C193.41,100 194.998,100 196.584,100C198.17,100 199.755,100 201.338,100C202.922,100 204.504,100 206.086,100C207.668,100 209.248,100 210.826,100C212.404,100 213.982,100 215.558,100C217.136,100 218.71,100 220.284,100C221.858,100 223.432,100 225.002,100C226.574,100 228.144,100 229.714,100C231.284,100 232.852,100 234.418,100C235.986,100 237.55,100 239.116,100C240.68,100 242.244,100 243.806,100C245.368,100 246.928,100 248.488,100C250.048,100 251.608,100 253.164,100C254.722,100 256.278,100 257.834,100C259.388,100 260.942,100 262.496,100C264.048,100 265.6,100 267.152,100C268.702,100 270.252,100 271.8,100C273.348,100 274.896,100 276.442,100C277.988,100 279.532,100 281.076,100C282.62,100 284.162,100 285.704,100C287.246,100 288.786,100 290.326,100C291.866,100 293.404,100 294.94,100C296.478,100 298.014,100 299.548,100C301.084,100 302.618,100 304.15,100C305.682,100 307.214,100 308.746,100C310.276,100 311.806,100 313.334,100C314.862,100 316.39,100 317.916,100C319.442,100 320.966,100 322.49,100C324.014,100 325.538,100 327.06,100C328.582,100 330.102,100 331.622,100C333.142,100 334.662,100 336.178,100C337.696,100 339.212,100 340.728,100C342.244,100 343.758,100 345.272,100C346.786,100 348.298,100 349.81,100C351.32,100 352.832,100 354.34,100C355.85,100 357.358,100 358.866,100C360.372,100 361.878,100 363.384,100C364.89,100 366.394,100 367.896,100C369.4,100 370.902,100 372.404,100C373.904,100 375.404,100 376.904,100C378.402,100 379.902,100 381.398,100C382.896,100 384.392,100 385.886,100C387.382,100 388.876,100 390.37,100C391.862,100 393.354,100 394.846,100C396.336,100 397.826,100 399.316,100C400.806,100 402.294,100 403.78,100C405.268,100 406.754,100 408.24,100C409.726,100 411.21,100 412.694,100C414.176,100 415.658,100 417.14,100C418.622,100 420.102,100 421.582,100C423.062,100 424.54,100 426.018,100C427.496,100 428.972,100 430.448,100C431.924,100 433.4,100 434.874,100C436.348,100 437.82,100 439.292,100C440.764,100 442.236,100 443.706,100C445.176,100 446.646,100 448.114,100C449.582,100 451.05,100 452.516,100C453.984,100 455.45,100 456.914,100C458.378,100 459.842,100 461.306,100C462.768,100 464.23,100 465.692,100C467.154,100 468.614,100 470.072,100C471.532,100 472.992,100 474.448,100C475.906,100 477.364,100 478.82,100C480.276,100 481.73,100 483.184,100C484.638,100 486.092,100 487.544,100C488.996,100 490.448,100 491.9,100C493.35,100 494.8,100 496.248,100C497.698,100 499.146,100 500.594,100C502.04,100 503.488,100 504.932,100C506.378,100 507.824,100 509.268,100C510.712,100 512.154,100 513.596,100C515.038,100 516.48,100 517.92,100C519.362,100 520.802,100 522.24,100C523.68,100 525.118,100 526.556,100C527.992,100 529.43,100 530.864,100C532.3,100 533.736,100 535.17,100C536.604,100 538.038,100 539.47,100C540.902,100 542.334,100 543.766,100C545.196,100 546.626,100 548.056,100C549.486,100 550.914,100 552.342,100C553.77,100 555.196,100 556.622,100C558.05,100 559.474,100 560.9,100C562.324,100 563.748,100 565.172,100C566.594,100 568.018,100 569.438,100C570.86,100 572.282,100 573.702,100C575.122,100 576.542,100 577.96,100C579.378,100 580.796,100 582.214,100C583.632,100 585.048,100 586.464,100C587.88,100 589.294,100 590.708,100C592.124,100 593.536,100 594.95,100C596.362,100 597.774,100 599.186,100C600.598,100 602.008,100 603.418,100C604.828,100 606.238,100 607.646,100C609.054,100 610.462,100 611.87,100C613.278,100 614.684,100 616.09,100C617.496,100 618.9,100 620.304,100C621.71,100 623.112,100 624.516,100C625.918,100 627.322,100 628.724,100C630.124,100 631.526,100 632.926,100C634.326,100 635.726,100 637.126,100C638.524,100 639.922,100 641.32,100C642.718,100 644.114,100 645.512,100C646.908,100 648.304,100 649.698,100C651.094,100 652.488,100 653.882,100C655.276,100 656.668,100 658.062,100C659.454,100 660.846,100 662.236,100C663.628,100 665.018,100 666.408,100C667.798,100 669.188,100 670.578,100C671.966,100 673.354,100 674.742,100C676.128,100 677.516,100 678.902,100C680.288,100 681.674,100 683.06,100C684.444,100 685.828,100 687.212,100C688.596,100 689.98,100 691.362,100C692.746,100 694.128,100 695.51,100C696.89,100 698.272,100 699.652,100C701.032,100 702.412,100 703.792,100C705.17,100 706.55,100 707.928,100C709.306,100 710.682,100 712.06,100C713.436,100 714.814,100 716.19,100C717.564,100 718.94,100 720.314,100C721.69,100 723.064,100 724.438,100C725.812,100 727.184,100 728.556,100C729.93,100 731.302,100 732.672,100C734.044,100 735.416,100 736.786,100C738.156,100 739.526,100 740.896,100C742.264,100 743.634,100 745.002,100C746.37,100 747.738,100 749.106,100C750.472,100 751.84,100 753.206,100C754.572,100 755.938,100 757.302,100C758.668,100 760.032,100 761.398,100C762.762,100 764.126,100 765.488,100C766.852,100 768.214,100 769.578,100C770.94,100 772.302,100 773.662,100C775.024,100 776.384,100 777.746,100C779.106,100 780.466,100 781.826,100C783.184,100 784.544,100 785.902,100C787.26,100 788.618,100 789.976,100C791.334,100 792.692,100 794.048,100C795.404,100 796.762,100 798.118,100C799.472,100 800.828,100 802.184,100C803.538,100 804.892,100 806.246,100C807.602,100 808.954,100 810.308,100C811.662,100 813.014,100 814.366,100C815.718,100 817.07,100 818.422,100C819.774,100 821.126,100 822.476,100C823.826,100 825.176,100 826.526,100C827.876,100 829.226,100 830.576,100C831.924,100 833.274,100 834.622,100C835.97,100 837.318,100 838.666,100C840.014,100 841.36,100 842.708,100C844.054,100 845.4,100 846.746,100C848.092,100 849.438,100 850.784,100C852.128,100 853.474,100 854.818,100C856.162,100 857.508,100 858.85,100C860.194,100 861.538,100 862.882,100C864.224,100 865.568,100 866.91,100C868.252,100 869.594,100 870.936,100C872.278,100 873.62,100 874.96,100C876.302,100 877.642,100 878.982,100C880.322,100 881.664,100 883.002,100C884.342,100 885.682,100 887.022,100C888.36,100 889.7,100 891.038,100C892.376,100 893.714,100 895.052,100C896.39,100 897.728,100 899.064,100C900.402,100 901.74,100 903.076,100C904.412,100 905.748,100 907.084,100C908.42,100 909.756,100 911.092,100C912.428,100 913.764,100 915.098,100C916.432,100 917.768,100 919.102,100C920.436,100 921.77,100 923.104,100C924.438,100 925.772,100 927.106,100C928.438,100 929.772,100 931.104,100C932.438,100 933.77,100 935.102,100C936.434,100 937.766,100 939.098,100C940.43,100 941.762,100 943.094,100C944.424,100 945.756,100 947.086,100C948.418,100 949.748,100 951.078,100C952.408,100 953.738,100 955.068,100C956.398,100 957.728,100 959.058,100C960.388,100 961.716,100 963.046,100C964.376,100 965.704,100 967.032,100C968.362,100 969.69,100 971.018,100C972.346,100 973.674,100 975.002,100C976.33,100 977.658,100 978.986,100C980.312,100 981.64,100 982.968,100C984.294,100 985.622,100 986.948,100C988.274,100 989.602,100 990.928,100C992.254,100 993.58,100 994.906,100C996.232,100 997.558,100 998.884,100C1000.21,100 1001.536,100 1002.862,100C1004.186,100 1005.512,100 1006.838,100C1008.162,100 1009.488,100 1010.812,100C1012.138,100 1013.462,100 1014.786,100C1016.112,100 1017.436,100 1018.76,100C1020.084,100 1021.408,100 1022.732,100C1024.056,100 1025.38,100 1026.704,100C1028.028,100 1029.352,100 1030.676,100C1032,100 1033.322,100 1034.646,100C1035.97,100 1037.292,100 1038.616,100C1039.938,100 1041.262,100 1042.586,100C1043.908,100 1045.23,100 1046.554,100C1047.876,100 1049.2,100 1050.522,100C1051.844,100 1053.166,100 1054.49,100C1055.812,100 1057.134,100 1058.456,100C1059.778,100 1061.1,100 1062.422,100C1063.746,100 1065.068,100 1066.39,100C1067.712,100 1069.034,100 1070.356,100C1071.678,100 1072.998,100 1074.32,100C1075.642,100 1076.964,100 1078.286,100C1079.608,100 1080.93,100 1082.25,100C1083.572,100 1084.894,100 1086.216,100C1087.536,100 1088.858,100 1090.18,100C1091.502,100 1092.822,100 1094.144,100C1095.466,100 1096.786,100 1098.108,100C1099.43,100 1100.752,100 1102.072,100C1103.394,100 1104.716,100 1106.036,100C1107.358,100 1108.68,100 1110,100C1111.322,100 1112.644,100 1113.964,100C1115.286,100 1116.608,100 1117.928,100C1119.25,100 1120.572,100 1121.892,100C1123.214,100 1124.536,100 1125.856,100C1127.178,100 1128.5,100 1129.822,100C1131.142,100 1132.464,100 1133.786,100C1135.108,100 1136.428,100 1137.75,100C1139.072,100 1140.394,100 1141.716,100C1143.036,100 1144.358,100 1145.68,100C1147.002,100 1148.324,100 1149.646,100C1150.968,100 1152.29,100 1153.612,100C1154.934,100 1156.256,100 1157.578,100C1158.9,100 1160.222,100 1161.544,100C1162.866,100 1164.19,100 1165.512,100C1166.834,100 1168.156,100 1169.48,100C1170.802,100 1172.124,100 1173.448,100C1174.77,100 1176.094,100 1177.416,100C1178.738,100 1180.062,100 1181.386,100C1182.708,100 1184.032,100 1185.354,100C1186.678,100 1188.002,100 1189.326,100C1190.648,100 1191.972,100 1193.296,100C1194.62,100 1195.944,100 1197.268,100C1198.592,100 1199.916,100 1201.24,100C1202.566,100 1203.89,100 1205.214,100C1206.538,100 1207.864,100 1209.188,100C1210.514,100 1211.838,100 1213.164,100C1214.488,100 1215.814,100 1217.14,100C1218.464,100 1219.79,100 1221.116,100C1222.442,100 1223.768,100 1225.094,100C1226.42,100 1227.746,100 1229.072,100C1230.4,100 1231.726,100 1233.052,100C1234.38,100 1235.706,100 1237.034,100C1238.36,100 1239.688,100 1241.016,100C1242.344,100 1243.67,100 1244.998,100C1246.326,100 1247.654,100 1248.982,100C1250.312,100 1251.64,100 1252.968,100C1254.298,100 1255.626,100 1256.956,100C1258.284,100 1259.614,100 1260.942,100C1262.272,100 1263.602,100 1264.932,100C1266.262,100 1267.592,100 1268.922,100C1270.254,100 1271.584,100 1272.914,100C1274.246,100 1275.576,100 1276.908,100C1278.24,100 1279.57,100 1280.902,100C1282.234,100 1283.566,100 1284.898,100C1286.232,100 1287.564,100 1288.896,100C1290.23,100 1291.562,100 1292.896,100C1294.23,100 1295.562,100 1296.896,100C1298.23,100 1299.564,100 1300.898,100C1302.234,100 1303.568,100 1304.902,100C1306.238,100 1307.574,100 1308.908,100C1310.244,100 1311.58,100 1312.916,100C1314.252,100 1315.588,100 1316.926,100C1318.262,100 1319.598,100 1320.936,100C1322.274,100 1323.61,100 1324.948,100C1326.286,100 1327.624,100 1328.964,100C1330.302,100 1331.64,100 1332.98,100C1334.318,100 1335.658,100 1336.998,100C1338.338,100 1339.678,100 1341.018,100C1342.358,100 1343.7,100 1345.04,100C1346.382,100 1347.724,100 1349.064,100C1350.406,100 1351.748,100 1353.092,100C1354.434,100 1355.776,100 1357.12,100C1358.462,100 1359.806,100 1361.15,100C1362.494,100 1363.838,100 1365.182,100C1366.528,100 1367.872,100 1369.218,100C1370.562,100 1371.908,100 1373.254,100C1374.6,100 1375.948,100 1377.294,100C1378.64,100 1379.988,100 1381.336,100C1382.682,100 1384.03,100 1385.38,100C1386.728,100 1388.076,100 1389.426,100C1390.774,100 1392.124,100 1393.474,100C1394.824,100 1396.174,100 1397.526,100C1398.876,100 1400.228,100 1401.578,100C1402.93,100 1404.282,100 1405.634,100C1406.986,100 1408.34,100 1409.692,100C1411.046,100 1412.4,100 1413.754,100C1415.108,100 1416.462,100 1417.818,100C1419.172,100 1420.528,100 1421.884,100C1423.24,100 1424.596,100 1425.952,100C1427.31,100 1428.666,100 1430.024,100C1431.382,100 1432.74,100 1434.098,100C1435.458,100 1436.816,100 1438.176,100C1439.536,100 1440.896,100 1442.256,100C1443.616,100 1444.978,100 1446.338,100C1447.7,100 1449.062,100 1450.424,100C1451.786,100 1453.15,100 1454.512,100C1455.876,100 1457.24,100 1458.604,100C1459.968,100 1461.332,100 1462.698,100C1464.064,100 1465.43,100 1466.796,100C1468.162,100 1469.528,100 1470.896,100C1472.264,100 1473.63,100 1475,100C1476.368,100 1477.736,100 1479.106,100C1480.476,100 1481.844,100 1483.216,100C1484.586,100 1485.956,100 1487.328,100C1488.7,100 1490.072,100 1491.444,100C1492.816,100 1494.19,100 1495.564,100C1496.938,100 1498.312,100 1499.686,100C1501.06,100 1502.436,100 1503.812,100C1505.188,100 1506.564,100 1507.942,100C1509.318,100 1510.696,100 1512.074,100C1513.452,100 1514.83,100 1516.21,100C1517.588,100 1518.968,100 1520.348,100C1521.73,100 1523.11,100 1524.492,100C1525.874,100 1527.256,100 1528.638,100C1530.02,100 1531.404,100 1532.788,100C1534.172,100 1535.556,100 1536.942,100C1538.326,100 1539.712,100 1541.098,100C1542.486,100 1543.872,100 1545.26,100C1546.648,100 1548.036,100 1549.424,100C1550.812,100 1552.202,100 1553.592,100C1554.982,100 1556.372,100 1557.764,100C1559.156,100 1560.548,100 1561.94,100C1563.332,100 1564.726,100 1566.12,100C1567.512,100 1568.908,100 1570.302,100C1571.698,100 1573.094,100 1574.49,100C1575.886,100 1577.284,100 1578.68,100C1580.078,100 1581.476,100 1582.876,100C1584.274,100 1585.674,100 1587.074,100C1588.476,100 1589.876,100 1591.278,100C1592.68,100 1594.082,100 1595.486,100C1596.888,100 1598.292,100 1599.696,100C1601.1,100 1602.506,100 1603.912,100C1605.318,100 1606.724,100 1608.132,100C1609.538,100 1610.946,100 1612.354,100C1613.764,100 1615.172,100 1616.582,100C1617.992,100 1619.404,100 1620.814,100C1622.226,100 1623.638,100 1625.052,100C1626.464,100 1627.878,100 1629.292,100C1630.706,100 1632.122,100 1633.538,100C1634.954,100 1636.37,100 1637.786,100C1639.204,100 1640.622,100 1642.04,100C1643.46,100 1644.878,100 1646.3,100C1647.72,100 1649.14,100 1650.562,100C1651.984,100 1653.406,100 1654.83,100C1656.252,100 1657.676,100 1659.102,100C1660.526,100 1661.952,100 1663.378,100C1664.804,100 1666.232,100 1667.66,100C1669.088,100 1670.516,100 1671.946,100C1673.374,100 1674.804,100 1676.236,100C1677.666,100 1679.098,100 1680.532,100C1681.964,100 1683.398,100 1684.832,100C1686.266,100 1687.7,100 1689.136,100C1690.572,100 1692.008,100 1693.446,100C1694.884,100 1696.322,100 1697.76,100C1699.2,100 1700.64,100 1702.08,100C1703.52,100 1704.962,100 1706.404,100C1707.846,100 1709.29,100 1710.734,100C1712.178,100 1713.622,100 1715.068,100C1716.514,100 1717.96,100 1719.408,100C1720.856,100 1722.304,100 1723.752,100C1725.202,100 1726.652,100 1728.102,100C1729.552,100 1731.004,100 1732.456,100C1733.91,100 1735.362,100 1736.816,100C1738.27,100 1739.726,100 1741.182,100C1742.638,100 1744.094,100 1745.552,100C1747.01,100 1748.468,100 1749.928,100C1751.388,100 1752.848,100 1754.308,100C1755.77,100 1757.232,100 1758.696,100C1760.158,100 1761.622,100 1763.088,100C1764.552,100 1766.018,100 1767.484,100C1768.95,100 1770.418,100 1771.886,100C1773.356,100 1774.824,100 1776.294,100C1777.766,100 1779.236,100 1780.708,100C1782.18,100 1783.654,100 1785.128,100C1786.602,100 1788.076,100 1789.552,100C1791.028,100 1792.506,100 1793.982,100C1795.46,100 1796.94,100 1798.418,100C1799.898,100 1801.378,100 1802.86,100C1804.342,100 1805.824,100 1807.308,100C1808.792,100 1810.276,100 1811.762,100C1813.246,100 1814.732,100 1816.22,100C1817.708,100 1819.196,100 1820.684,100C1822.174,100 1823.664,100 1825.156,100C1826.646,100 1828.138,100 1829.632,100C1831.126,100 1832.62,100 1834.114,100C1835.61,100 1837.106,100 1838.602,100C1840.1,100 1841.598,100 1843.098,100C1844.596,100 1846.096,100 1847.598,100C1849.098,100 1850.602,100 1852.104,100C1853.608,100 1855.112,100 1856.616,100C1858.122,100 1859.628,100 1861.136,100C1862.642,100 1864.152,100 1865.66,100C1867.17,100 1868.68,100 1870.192,100C1871.702,100 1873.216,100 1874.728,100C1876.242,100 1877.756,100 1879.272,100C1880.788,100 1882.304,100 1883.822,100C1885.34,100 1886.858,100 1888.378,100C1889.898,100 1891.42,100 1892.942,100C1894.464,100 1895.986,100 1897.51,100C1899.034,100 1900.56,100 1902.086,100C1903.612,100 1905.14,100 1906.668,100C1908.196,100 1909.726,100 1911.256,100C1912.786,100 1914.318,100 1915.85,100C1917.384,100 1918.918,100 1920.452,100C1921.988,100 1923.524,100 1925.06,100C1926.598,100 1928.136,100 1929.676,100C1931.214,100 1932.756,100 1934.296,100C1935.838,100 1937.38,100 1938.924,100C1940.468,100 1942.014,100 1943.56,100C1945.106,100 1946.652,100 1948.202,100C1949.75,100 1951.3,100 1952.85,100C1954.4,100 1955.952,100 1957.506,100C1959.058,100 1960.612,100 1962.168,100C1963.722,100 1965.278,100 1966.836,100C1968.394,100 1969.952,100 1971.512,100C1973.072,100 1974.634,100 1976.196,100C1977.758,100 1979.322,100 1980.886,100C1982.45,100 1984.016,100 1985.582,100C1987.15,100 1988.718,100 1990.286,100C1991.856,100 1993.426,100 1994.998,100C1996.57,100 1998.142,100 1999.716,100C2001.3,100 2002.86,100 2004.44,100C2006.02,100 2007.6,100 2009.18,100C2010.76,100 2012.34,100 2013.92,100C2015.5,100 2017.08,100 2018.66,100C2020.24,100 2021.84,100 2023.42,100C2025,100 2026.6,100 2028.18,100C2029.76,100 2031.36,100 2032.94,100C2034.54,100 2036.14,100 2037.72,100C2039.32,100 2040.92,100 2042.52,100C2044.1,100 2045.7,100 2047.3,100C2048.9,100 2050.5,100 2052.1,100C2053.7,100 2055.3,100 2056.9,100C2058.52,100 2060.12,100 2061.72,100C2063.32,100 2064.94,100 2066.54,100C2068.16,100 2069.76,100 2071.38,100C2072.98,100 2074.6,100 2076.22,100C2077.82,100 2079.44,100 2081.06,100C2082.68,100 2084.3,100 2085.92,100C2087.52,100 2089.14,100 2090.78,100C2092.4,100 2094.02,100 2095.64,100C2097.26,100 2098.88,100 2100.52,100C2102.14,100 2103.78,100 2105.4,100C2107.04,100 2108.66,100 2110.3,100C2111.92,100 2113.56,100 2115.2,100C2116.82,100 2118.46,100 2120.1,100C2121.74,100 2123.38,100 2125.02,100C2126.66,100 2128.3,100 2129.94,100C2131.58,100 2133.22,100 2134.88,100C2136.52,100 2138.16,100 2139.82,100C2141.46,100 2143.12,100 2144.76,100C2146.42,100 2148.06,100 2149.72,100C2151.38,100 2153.04,100 2154.68,100C2156.34,100 2158,100 2159.66,100C2161.32,100 2162.98,100 2164.64,100C2166.3,100 2167.96,100 2169.64,100C2171.3,100 2172.96,100 2174.64,100C2176.3,100 2177.96,100 2179.64,100C2181.3,100 2182.98,100 2184.66,100C2186.32,100 2188,100 2189.68,100C2191.36,100 2193.04,100 2194.7,100C2196.38,100 2198.06,100 2199.76,100C2201.44,100 2203.12,100 2204.8,100C2206.48,100 2208.18,100 2209.86,100C2211.54,100 2213.24,100 2214.92,100C2216.62,100 2218.3,100 2220,100L2220,96C2218.3,96 2216.62,96 2214.92,96C2213.24,96 2211.54,96 2209.86,96C2208.18,96 2206.48,96 2204.8,96C2203.12,96 2201.44,96 2199.76,96C2198.06,96 2196.38,96 2194.7,96C2193.04,96 2191.36,96 2189.68,96C2188,96 2186.32,96 2184.66,96C2182.98,96 2181.3,96 2179.64,96C2177.96,96 2176.3,96 2174.64,96C2172.96,96 2171.3,96 2169.64,96C2167.96,96 2166.3,96 2164.64,96C2162.98,96 2161.32,96 2159.66,96C2158,96 2156.34,96 2154.68,96C2153.04,96 2151.38,96 2149.72,96C2148.06,96 2146.42,96 2144.76,96C2143.12,96 2141.46,96 2139.82,96C2138.16,96 2136.52,96 2134.88,96C2133.22,96 2131.58,96 2129.94,96C2128.3,96 2126.66,96 2125.02,96C2123.38,96 2121.74,96 2120.1,96C2118.46,96 2116.82,96 2115.2,96C2113.56,96 2111.92,96 2110.3,96C2108.66,96 2107.04,96 2105.4,96C2103.78,96 2102.14,96 2100.52,96C2098.88,96 2097.26,96 2095.64,96C2094.02,96 2092.4,96 2090.78,96C2089.14,96 2087.52,96 2085.92,96C2084.3,96 2082.68,96 2081.06,96C2079.44,96 2077.82,96 2076.22,96C2074.6,96 2072.98,96 2071.38,96C2069.76,96 2068.16,96 2066.54,96C2064.94,96 2063.32,96 2061.72,96C2060.12,96 2058.52,96 2056.9,96C2055.3,96 2053.7,96 2052.1,96C2050.5,96 2048.9,96 2047.3,96C2045.7,96 2044.1,96 2042.52,96C2040.92,96 2039.32,96 2037.72,96C2036.14,96 2034.54,96 2032.94,96C2031.36,96 2029.76,96 2028.18,96C2026.6,96 2025,96 2023.42,96C2021.84,96 2020.24,96 2018.66,96C2017.08,96 2015.5,96 2013.92,96C2012.34,96 2010.76,96 2009.18,96C2007.6,96 2006.02,96 2004.44,96C2002.86,96 2001.3,96 1999.716,96C1998.142,96 1996.57,96 1994.998,96C1993.426,96 1991.856,96 1990.286,96C1988.718,96 1987.15,96 1985.582,96C1984.016,96 1982.45,96 1980.886,96C1979.322,96 1977.758,96 1976.196,96C1974.634,96 1973.072,96 1971.512,96C1969.952,96 1968.394,96 1966.836,96C1965.278,96 1963.722,96 1962.168,96C1960.612,96 1959.058,96 1957.506,96C1955.952,96 1954.4,96 1952.85,96C1951.3,96 1949.75,96 1948.202,96C1946.652,96 1945.106,96 1943.56,96C1942.014,96 1940.468,96 1938.924,96C1937.38,96 1935.838,96 1934.296,96C1932.756,96 1931.214,96 1929.676,96C1928.136,96 1926.598,96 1925.06,96C1923.524,96 1921.988,96 1920.452,96C1918.918,96 1917.384,96 1915.85,96C1914.318,96 1912.786,96 1911.256,96C1909.726,96 1908.196,96 1906.668,96C1905.14,96 1903.612,96 1902.086,96C1900.56,96 1899.034,96 1897.51,96C1895.986,96 1894.464,96 1892.942,96C1891.42,96 1889.898,96 1888.378,96C1886.858,96 1885.34,96 1883.822,96C1882.304,96 1880.788,96 1879.272,96C1877.756,96 1876.242,96 1874.728,96C1873.216,96 1871.702,96 1870.192,96C1868.68,96 1867.17,96 1865.66,96C1864.152,96 1862.642,96 1861.136,96C1859.628,96 1858.122,96 1856.616,96C1855.112,96 1853.608,96 1852.104,96C1850.602,96 1849.098,96 1847.598,96C1846.096,96 1844.596,96 1843.098,96C1841.598,96 1840.1,96 1838.602,96C1837.106,96 1835.61,96 1834.114,96C1832.62,96 1831.126,96 1829.632,96C1828.138,96 1826.646,96 1825.156,96C1823.664,96 1822.174,96 1820.684,96C1819.196,96 1817.708,96 1816.22,96C1814.732,96 1813.246,96 1811.762,96C1810.276,96 1808.792,96 1807.308,96C1805.824,96 1804.342,96 1802.86,96C1801.378,96 1799.898,96 1798.418,96C1796.94,96 1795.46,96 1793.982,96C1792.506,96 1791.028,96 1789.552,96C1788.076,96 1786.602,96 1785.128,96C1783.654,96 1782.18,96 1780.708,96C1779.236,96 1777.766,96 1776.294,96C1774.824,96 1773.356,96 1771.886,96C1770.418,96 1768.95,96 1767.484,96C1766.018,96 1764.552,96 1763.088,96C1761.622,96 1760.158,96 1758.696,96C1757.232,96 1755.77,96 1754.308,96C1752.848,96 1751.388,96 1749.928,96C1748.468,96 1747.01,96 1745.552,96C1744.094,96 1742.638,96 1741.182,96C1739.726,96 1738.27,96 1736.816,96C1735.362,96 1733.91,96 1732.456,96C1731.004,96 1729.552,96 1728.102,96C1726.652,96 1725.202,96 1723.752,96C1722.304,96 1720.856,96 1719.408,96C1717.96,96 1716.514,96 1715.068,96C1713.622,96 1712.178,96 1710.734,96C1709.29,96 1707.846,96 1706.404,96C1704.962,96 1703.52,96 1702.08,96C1700.64,96 1699.2,96 1697.76,96C1696.322,96 1694.884,96 1693.446,96C1692.008,96 1690.572,96 1689.136,96C1687.7,96 1686.266,96 1684.832,96C1683.398,96 1681.964,96 1680.532,96C1679.098,96 1677.666,96 1676.236,96C1674.804,96 1673.374,96 1671.946,96C1670.516,96 1669.088,96 1667.66,96C1666.232,96 1664.804,96 1663.378,96C1661.952,96 1660.526,96 1659.102,96C1657.676,96 1656.252,96 1654.83,96C1653.406,96 1651.984,96 1650.562,96C1649.14,96 1647.72,96 1646.3,96C1644.878,96 1643.46,96 1642.04,96C1640.622,96 1639.204,96 1637.786,96C1636.37,96 1634.954,96 1633.538,96C1632.122,96 1630.706,96 1629.292,96C1627.878,96 1626.464,96 1625.052,96C1623.638,96 1622.226,96 1620.814,96C1619.404,96 1617.992,96 1616.582,96C1615.172,96 1613.764,96 1612.354,96C1610.946,96 1609.538,96 1608.132,96C1606.724,96 1605.318,96 1603.912,96C1602.506,96 1601.1,96 1599.696,96C1598.292,96 1596.888,96 1595.486,96C1594.082,96 1592.68,96 1591.278,96C1589.876,96 1588.476,96 1587.074,96C1585.674,96 1584.274,96 1582.876,96C1581.476,96 1580.078,96 1578.68,96C1577.284,96 1575.886,96 1574.49,96C1573.094,96 1571.698,96 1570.302,96C1568.908,96 1567.512,96 1566.12,96C1564.726,96 1563.332,96 1561.94,96C1560.548,96 1559.156,96 1557.764,96C1556.372,96 1554.982,96 1553.592,96C1552.202,96 1550.812,96 1549.424,96C1548.036,96 1546.648,96 1545.26,96C1543.872,96 1542.486,96 1541.098,96C1539.712,96 1538.326,96 1536.942,96C1535.556,96 1534.172,96 1532.788,96C1531.404,96 1530.02,96 1528.638,96C1527.256,96 1525.874,96 1524.492,96C1523.11,96 1521.73,96 1520.348,96C1518.968,96 1517.588,96 1516.21,96C1514.83,96 1513.452,96 1512.074,96C1510.696,96 1509.318,96 1507.942,96C1506.564,96 1505.188,96 1503.812,96C1502.436,96 1501.06,96 1499.686,96C1498.312,96 1496.938,96 1495.564,96C1494.19,96 1492.816,96 1491.444,96C1490.072,96 1488.7,96 1487.328,96C1485.956,96 1484.586,96 1483.216,96C1481.844,96 1480.476,96 1479.106,96C1477.736,96 1476.368,96 1475,96C1473.63,96 1472.264,96 1470.896,96C1469.528,96 1468.162,96 1466.796,96C1465.43,96 1464.064,96 1462.698,96C1461.332,96 1459.968,96 1458.604,96C1457.24,96 1455.876,96 1454.512,96C1453.15,96 1451.786,96 1450.424,96C1449.062,96 1447.7,96 1446.338,96C1444.978,96 1443.616,96 1442.256,96C1440.896,96 1439.536,96 1438.176,96C1436.816,96 1435.458,96 1434.098,96C1432.74,96 1431.382,96 1430.024,96C1428.666,96 1427.31,96 1425.952,96C1424.596,96 1423.24,96 1421.884,96C1420.528,96 1419.172,96 1417.818,96C1416.462,96 1415.108,96 1413.754,96C1412.4,96 1411.046,96 1409.692,96C1408.34,96 1406.986,96 1405.634,96C1404.282,96 1402.93,96 1401.578,96C1400.228,96 1398.876,96 1397.526,96C1396.174,96 1394.824,96 1393.474,96C1392.124,96 1390.774,96 1389.426,96C1388.076,96 1386.728,96 1385.38,96C1384.03,96 1382.682,96 1381.336,96C1379.988,96 1378.64,96 1377.294,96C1375.948,96 1374.6,96 1373.254,96C1371.908,96 1370.562,96 1369.218,96C1367.872,96 1366.528,96 1365.182,96C1363.838,96 1362.494,96 1361.15,96C1359.806,96 1358.462,96 1357.12,96C1355.776,96 1354.434,96 1353.092,96C1351.748,96 1350.406,96 1349.064,96C1347.724,96 1346.382,96 1345.04,96C1343.7,96 1342.358,96 1341.018,96C1339.678,96 1338.338,96 1336.998,96C1335.658,96 1334.318,96 1332.98,96C1331.64,96 1330.302,96 1328.964,96C1327.624,96 1326.286,96 1324.948,96C1323.61,96 1322.274,96 1320.936,96C1319.598,96 1318.262,96 1316.926,96C1315.588,96 1314.252,96 1312.916,96C1311.58,96 1310.244,96 1308.908,96C1307.574,96 1306.238,96 1304.902,96C1303.568,96 1302.234,96 1300.898,96C1299.564,96 1298.23,96 1296.896,96C1295.562,96 1294.23,96 1292.896,96C1291.562,96 1290.23,96 1288.896,96C1287.564,96 1286.232,96 1284.898,96C1283.566,96 1282.234,96 1280.902,96C1279.57,96 1278.24,96 1276.908,96C1275.576,96 1274.246,96 1272.914,96C1271.584,96 1270.254,96 1268.922,96C1267.592,96 1266.262,96 1264.932,96C1263.602,96 1262.272,96 1260.942,96C1259.614,96 1258.284,96 1256.956,96C1255.626,96 1254.298,96 1252.968,96C1251.64,96 1250.312,96 1248.982,96C1247.654,96 1246.326,96 1244.998,96C1243.67,96 1242.344,96 1241.016,96C1239.688,96 1238.36,96 1237.034,96C1235.706,96 1234.38,96 1233.052,96C1231.726,96 1230.4,96 1229.072,96C1227.746,96 1226.42,96 1225.094,96C1223.768,96 1222.442,96 1221.116,96C1219.79,96 1218.464,96 1217.14,96C1215.814,96 1214.488,96 1213.164,96C1211.838,96 1210.514,96 1209.188,96C1207.864,96 1206.538,96 1205.214,96C1203.89,96 1202.566,96 1201.24,96C1199.916,96 1198.592,96 1197.268,96C1195.944,96 1194.62,96 1193.296,96C1191.972,96 1190.648,96 1189.326,96C1188.002,96 1186.678,96 1185.354,96C1184.032,96 1182.708,96 1181.386,96C1180.062,96 1178.738,96 1177.416,96C1176.094,96 1174.77,96 1173.448,96C1172.124,96 1170.802,96 1169.48,96C1168.156,96 1166.834,96 1165.512,96C1164.19,96 1162.866,96 1161.544,96C1160.222,96 1158.9,96 1157.578,96C1156.256,96 1154.934,96 1153.612,96C1152.29,96 1150.968,96 1149.646,96C1148.324,96 1147.002,96 1145.68,96C1144.358,96 1143.036,96 1141.716,96C1140.394,96 1139.072,96 1137.75,96C1136.428,96 1135.108,96 1133.786,96C1132.464,96 1131.142,96 1129.822,96C1128.5,96 1127.178,96 1125.856,96C1124.536,96 1123.214,96 1121.892,96C1120.572,96 1119.25,96 1117.928,96C1116.608,96 1115.286,96 1113.964,96C1112.644,96 1111.322,96 1110,96C1108.68,96 1107.358,96 1106.036,96C1104.716,96 1103.394,96 1102.072,96C1100.752,96 1099.43,96 1098.108,96C1096.786,96 1095.466,96 1094.144,96C1092.822,96 1091.502,96 1090.18,96C1088.858,96 1087.536,96 1086.216,96C1084.894,96 1083.572,96 1082.25,96C1080.93,96 1079.608,96 1078.286,96C1076.964,96 1075.642,96 1074.32,96C1072.998,96 1071.678,96 1070.356,96C1069.034,96 1067.712,96 1066.39,96C1065.068,96 1063.746,96 1062.422,96C1061.1,96 1059.778,96 1058.456,96C1057.134,96 1055.812,96 1054.49,96C1053.166,96 1051.844,96 1050.522,96C1049.2,96 1047.876,96 1046.554,96C1045.23,96 1043.908,96 1042.586,96C1041.262,96 1039.938,96 1038.616,96C1037.292,96 1035.97,96 1034.646,96C1033.322,96 1032,96 1030.676,96C1029.352,96 1028.028,96 1026.704,96C1025.38,96 1024.056,96 1022.732,96C1021.408,96 1020.084,96 1018.76,96C1017.436,96 1016.112,96 1014.786,96C1013.462,96 1012.138,96 1010.812,96C1009.488,96 1008.162,96 1006.838,96C1005.512,96 1004.186,96 1002.862,96C1001.536,96 1000.21,96 998.884,96C997.558,96 996.232,96 994.906,96C993.58,96 992.254,96 990.928,96C989.602,96 988.274,96 986.948,96C985.622,96 984.294,96 982.968,96C981.64,96 980.312,96 978.986,96C977.658,96 976.33,96 975.002,96C973.674,96 972.346,96 971.018,96C969.69,96 968.362,96 967.032,96C965.704,96 964.376,96 963.046,96C961.716,96 960.388,96 959.058,96C957.728,96 956.398,96 955.068,96C953.738,96 952.408,96 951.078,96C949.748,96 948.418,96 947.086,96C945.756,96 944.424,96 943.094,96C941.762,96 940.43,96 939.098,96C937.766,96 936.434,96 935.102,96C933.77,96 932.438,96 931.104,96C929.772,96 928.438,96 927.106,96C925.772,96 924.438,96 923.104,96C921.77,96 920.436,96 919.102,96C917.768,96 916.432,96 915.098,96C913.764,96 912.428,96 911.092,96C909.756,96 908.42,96 907.084,96C905.748,96 904.412,96 903.076,96C901.74,96 900.402,96 899.064,96C897.728,96 896.39,96 895.052,96C893.714,96 892.376,96 891.038,96C889.7,96 888.36,96 887.022,96C885.682,96 884.342,96 883.002,96C881.664,96 880.322,96 878.982,96C877.642,96 876.302,96 874.96,96C873.62,96 872.278,96 870.936,96C869.594,96 868.252,96 866.91,96C865.568,96 864.224,96 862.882,96C861.538,96 860.194,96 858.85,96C857.508,96 856.162,96 854.818,96C853.474,96 852.128,96 850.784,96C849.438,96 848.092,96 846.746,96C845.4,96 844.054,96 842.708,96C841.36,96 840.014,96 838.666,96C837.318,96 835.97,96 834.622,96C833.274,96 831.924,96 830.576,96C829.226,96 827.876,96 826.526,96C825.176,96 823.826,96 822.476,96C821.126,96 819.774,96 818.422,96C817.07,96 815.718,96 814.366,96C813.014,96 811.662,96 810.308,96C808.954,96 807.602,96 806.246,96C804.892,96 803.538,96 802.184,96C800.828,96 799.472,96 798.118,96C796.762,96 795.404,96 794.048,96C792.692,96 791.334,96 789.976,96C788.618,96 787.26,96 785.902,96C784.544,96 783.184,96 781.826,96C780.466,96 779.106,96 777.746,96C776.384,96 775.024,96 773.662,96C772.302,96 770.94,96 769.578,96C768.214,96 766.852,96 765.488,96C764.126,96 762.762,96 761.398,96C760.032,96 758.668,96 757.302,96C755.938,96 754.572,96 753.206,96C751.84,96 750.472,96 749.106,96C747.738,96 746.37,96 745.002,96C743.634,96 742.264,96 740.896,96C739.526,96 738.156,96 736.786,96C735.416,96 734.044,96 732.672,96C731.302,96 729.93,96 728.556,96C727.184,96 725.812,96 724.438,96C723.064,96 721.69,96 720.314,96C718.94,96 717.564,96 716.19,96C714.814,96 713.436,96 712.06,96C710.682,96 709.306,96 707.928,96C706.55,96 705.17,96 703.792,96C702.412,96 701.032,96 699.652,96C698.272,96 696.89,96 695.51,96C694.128,96 692.746,96 691.362,96C689.98,96 688.596,96 687.212,96C685.828,96 684.444,96 683.06,96C681.674,96 680.288,96 678.902,96C677.516,96 676.128,96 674.742,96C673.354,96 671.966,96 670.578,96C669.188,96 667.798,96 666.408,96C665.018,96 663.628,96 662.236,96C660.846,96 659.454,96 658.062,96C656.668,96 655.276,96 653.882,96C652.488,96 651.094,96 649.698,96C648.304,96 646.908,96 645.512,96C644.114,96 642.718,96 641.32,96C639.922,96 638.524,96 637.126,96C635.726,96 634.326,96 632.926,96C631.526,96 630.124,96 628.724,96C627.322,96 625.918,96 624.516,96C623.112,96 621.71,96 620.304,96C618.9,96 617.496,96 616.09,96C614.684,96 613.278,96 611.87,96C610.462,96 609.054,96 607.646,96C606.238,96 604.828,96 603.418,96C602.008,96 600.598,96 599.186,96C597.774,96 596.362,96 594.95,96C593.536,96 592.124,96 590.708,96C589.294,96 587.88,96 586.464,96C585.048,96 583.632,96 582.214,96C580.796,96 579.378,96 577.96,96C576.542,96 575.122,96 573.702,96C572.282,96 570.86,96 569.438,96C568.018,96 566.594,96 565.172,96C563.748,96 562.324,96 560.9,96C559.474,96 558.05,96 556.622,96C555.196,96 553.77,96 552.342,96C550.914,96 549.486,96 548.056,96C546.626,96 545.196,96 543.766,96C542.334,96 540.902,96 539.47,96C538.038,96 536.604,96 535.17,96C533.736,96 532.3,96 530.864,96C529.43,96 527.992,96 526.556,96C525.118,96 523.68,96 522.24,96C520.802,96 519.362,96 517.92,96C516.48,96 515.038,96 513.596,96C512.154,96 510.712,96 509.268,96C507.824,96 506.378,96 504.932,96C503.488,96 502.04,96 500.594,96C499.146,96 497.698,96 496.248,96C494.8,96 493.35,96 491.9,96C490.448,96 488.996,96 487.544,96C486.092,96 484.638,96 483.184,96C481.73,96 480.276,96 478.82,96C477.364,96 475.906,96 474.448,96C472.992,96 471.532,96 470.072,96C468.614,96 467.154,96 465.692,96C464.23,96 462.768,96 461.306,96C459.842,96 458.378,96 456.914,96C455.45,96 453.984,96 452.516,96C451.05,96 449.582,96 448.114,96C446.646,96 445.176,96 443.706,96C442.236,96 440.764,96 439.292,96C437.82,96 436.348,96 434.874,96C433.4,96 431.924,96 430.448,96C428.972,96 427.496,96 426.018,96C424.54,96 423.062,96 421.582,96C420.102,96 418.622,96 417.14,96C415.658,96 414.176,96 412.694,96C411.21,96 409.726,96 408.24,96C406.754,96 405.268,96 403.78,96C402.294,96 400.806,96 399.316,96C397.826,96 396.336,96 394.846,96C393.354,96 391.862,96 390.37,96C388.876,96 387.382,96 385.886,96C384.392,96 382.896,96 381.398,96C379.902,96 378.402,96 376.904,96C375.404,96 373.904,96 372.404,96C370.902,96 369.4,96 367.896,96C366.394,96 364.89,96 363.384,96C361.878,96 360.372,96 358.866,96C357.358,96 355.85,96 354.34,96C352.832,96 351.32,96 349.81,96C348.298,96 346.786,96 345.272,96C343.758,96 342.244,96 340.728,96C339.212,96 337.696,96 336.178,96C334.662,96 333.142,96 331.622,96C330.102,96 328.582,96 327.06,96C325.538,96 324.014,96 322.49,96C320.966,96 319.442,96 317.916,96C316.39,96 314.862,96 313.334,96C311.806,96 310.276,96 308.746,96C307.214,96 305.682,96 304.15,96C302.618,96 301.084,96 299.548,96C298.014,96 296.478,96 294.94,96C293.404,96 291.866,96 290.326,96C288.786,96 287.246,96 285.704,96C284.162,96 282.62,96 281.076,96C279.532,96 277.988,96 276.442,96C274.896,96 273.348,96 271.8,96C270.252,96 268.702,96 267.152,96C265.6,96 264.048,96 262.496,96C260.942,96 259.388,96 257.834,96C256.278,96 254.722,96 253.164,96C251.608,96 250.048,96 248.488,96C246.928,96 245.368,96 243.806,96C242.244,96 240.68,96 239.116,96C237.55,96 235.986,96 234.418,96C232.852,96 231.284,96 229.714,96C228.144,96 226.574,96 225.002,96C223.432,96 221.858,96 220.284,96C218.71,96 217.136,96 215.558,96C213.982,96 212.404,96 210.826,96C209.248,96 207.668,96 206.086,96C204.504,96 202.922,96 201.338,96C199.755,96 198.17,96 196.584,96C194.998,96 193.41,96 191.822,96C190.233,96 188.643,96 187.052,96C185.461,96 183.869,96 182.275,96C180.682,96 179.087,96 177.491,96C175.895,96 174.298,96 172.699,96C171.1,96 169.501,96 167.9,96C166.299,96 164.696,96 163.093,96C161.489,96 159.884,96 158.278,96C156.672,96 155.065,96 153.456,96C151.847,96 150.237,96 148.626,96C147.015,96 145.403,96 143.789,96C142.175,96 140.56,96 138.943,96C137.327,96 135.709,96 134.09,96C132.472,96 130.851,96 129.23,96C127.608,96 125.985,96 124.361,96C122.737,96 121.111,96 119.485,96C117.858,96 116.23,96 114.6,96C112.971,96 111.34,96 109.708,96C108.076,96 106.442,96 104.808,96C103.173,96 101.537,96 99.899,96C98.262,96 96.623,96 94.983,96C93.343,96 91.701,96 90.058,96C88.416,96 86.771,96 85.126,96C83.48,96 81.834,96 80.185,96C78.537,96 76.887,96 75.236,96C73.585,96 71.933,96 70.279,96C68.626,96 66.971,96 65.314,96C63.658,96 62,96 60.341,96C58.681,96 57.021,96 55.359,96C53.697,96 52.033,96 50.368,96C48.704,96 47.037,96 45.37,96C43.702,96 42.033,96 40.363,96C38.692,96 37.021,96 35.347,96C33.674,96 32,96 30.324,96C28.647,96 26.97,96 25.291,96C23.612,96 21.932,96 20.25,96C18.568,96 16.885,96 15.201,96C13.516,96 11.83,96 10.142,96C8.455,96 6.766,96 5.076,96C3.385,96 1.693,96 0,96L0,100Z" fill="#000000" fill-opacity="0.2"/>
</svg>
